<svg
	width="72"
	height="73"
	viewBox="0 0 72 73"
	fill="none"
	xmlns="http://www.w3.org/2000/svg"
>
	<rect x="6.5" y="15.5" width="58" height="47" rx="6.5" fill="#6C4AB6" stroke="black" />
	<g filter="url(#filter0_d_0_1)">
		<circle cx="29.5" cy="55.5" r="5.5" fill="#8D9EFF" />
		<circle cx="29.5" cy="55.5" r="5" stroke="black" />
	</g>
	<g filter="url(#filter1_d_0_1)">
		<path
			fill-rule="evenodd"
			clip-rule="evenodd"
			d="M70 16.9881V16.0415H69.9653C69.3495 7.65214 60.6011 1 49.8995 1C44.1747 1 39.0089 2.90359 35.348 5.9584C31.7192 2.90359 26.5987 1 20.9242 1C9.96409 1 1.07093 8.10136 1.00042 16.883H1V16.9881V18.9867V19.197V37.0785V37.7096H1.04188C1.39031 40.3167 3.87006 42.3378 6.87734 42.3378C9.88463 42.3378 12.3644 40.3167 12.7128 37.7096H12.7547V37.0785V35.9264C13.4682 38.1117 15.7242 39.7081 18.3969 39.7081C20.937 39.7081 23.1006 38.2663 23.9216 36.2474V42.0222V42.3378H23.932C24.1144 45.0955 26.6714 47.2815 29.799 47.2815C32.9265 47.2815 35.4835 45.0955 35.6659 42.3378H35.6763V42.0222V30.2414C36.2208 32.642 38.5927 34.4489 41.4361 34.4489C43.1997 34.4489 44.7818 33.7538 45.8591 32.6532C46.1843 32.706 46.5125 32.7525 46.8433 32.7927V46.9659V47.0711H46.8444C46.907 49.9272 49.5139 52.2252 52.7206 52.2252C55.9273 52.2252 58.5342 49.9272 58.5968 47.0711H58.598V46.9659V44.1363C59.4189 46.1552 61.5826 47.597 64.1227 47.597C67.2502 47.597 69.8072 45.411 69.9896 42.6533H70V42.3378V16.9881Z"
			fill="#8D72E1"
		/>
		<path
			d="M70 16.0415H70.5V15.5415H70V16.0415ZM69.9653 16.0415L69.4667 16.0781L69.5007 16.5415H69.9653V16.0415ZM35.348 5.9584L35.026 6.34091L35.3466 6.61079L35.6684 6.3423L35.348 5.9584ZM1.00042 16.883V17.383H1.49642L1.50041 16.887L1.00042 16.883ZM1 16.883V16.383H0.5V16.883H1ZM1 37.7096H0.5V38.2096H1V37.7096ZM1.04188 37.7096L1.53748 37.6434L1.4795 37.2096H1.04188V37.7096ZM12.7128 37.7096V37.2096H12.2752L12.2172 37.6434L12.7128 37.7096ZM12.7547 37.7096V38.2096H13.2547V37.7096H12.7547ZM12.7547 35.9264L13.23 35.7712L12.2547 35.9264H12.7547ZM23.9216 36.2474H24.4216L23.4585 36.0591L23.9216 36.2474ZM23.9216 42.3378H23.4216V42.8378H23.9216V42.3378ZM23.932 42.3378L24.4309 42.3048L24.4001 41.8378H23.932V42.3378ZM35.6659 42.3378V41.8378H35.1979L35.167 42.3048L35.6659 42.3378ZM35.6763 42.3378V42.8378H36.1763V42.3378H35.6763ZM35.6763 30.2414L36.1639 30.1308L35.1763 30.2414H35.6763ZM45.8591 32.6532L45.9392 32.1596L45.6832 32.1181L45.5017 32.3034L45.8591 32.6532ZM46.8433 32.7927H47.3433V32.3497L46.9035 32.2963L46.8433 32.7927ZM46.8433 47.0711H46.3433V47.5711H46.8433V47.0711ZM46.8444 47.0711L47.3443 47.0602L47.3336 46.5711H46.8444V47.0711ZM58.5968 47.0711V46.5711H58.1076L58.0969 47.0602L58.5968 47.0711ZM58.598 47.0711V47.5711H59.098V47.0711H58.598ZM58.598 44.1363L59.0611 43.9479L58.098 44.1363H58.598ZM69.9896 42.6533V42.1533H69.5216L69.4907 42.6203L69.9896 42.6533ZM70 42.6533V43.1533H70.5V42.6533H70ZM69.5 16.0415V16.9881H70.5V16.0415H69.5ZM69.9653 16.5415H70V15.5415H69.9653V16.5415ZM49.8995 1.5C60.4384 1.5 68.8765 8.03847 69.4667 16.0781L70.464 16.0049C69.8225 7.26582 60.7639 0.5 49.8995 0.5V1.5ZM35.6684 6.3423C39.2325 3.36821 44.2826 1.5 49.8995 1.5V0.5C44.0669 0.5 38.7853 2.43897 35.0277 5.5745L35.6684 6.3423ZM20.9242 1.5C26.4897 1.5 31.4939 3.36747 35.026 6.34091L35.67 5.57589C31.9446 2.43972 26.7077 0.5 20.9242 0.5V1.5ZM1.50041 16.887C1.56794 8.47574 10.1318 1.5 20.9242 1.5V0.5C9.79636 0.5 0.573917 7.72699 0.500438 16.8789L1.50041 16.887ZM1 17.383H1.00042V16.383H1V17.383ZM1.5 16.9881V16.883H0.5V16.9881H1.5ZM1.5 18.9867V16.9881H0.5V18.9867H1.5ZM1.5 19.197V18.9867H0.5V19.197H1.5ZM1.5 37.0785V19.197H0.5V37.0785H1.5ZM1.5 37.7096V37.0785H0.5V37.7096H1.5ZM1.04188 37.2096H1V38.2096H1.04188V37.2096ZM6.87734 41.8378C4.08024 41.8378 1.84763 39.9641 1.53748 37.6434L0.546288 37.7759C0.932984 40.6693 3.65988 42.8378 6.87734 42.8378V41.8378ZM12.2172 37.6434C11.9071 39.9641 9.67444 41.8378 6.87734 41.8378V42.8378C10.0948 42.8378 12.8217 40.6693 13.2084 37.7759L12.2172 37.6434ZM12.7547 37.2096H12.7128V38.2096H12.7547V37.2096ZM12.2547 37.0785V37.7096H13.2547V37.0785H12.2547ZM12.2547 35.9264V37.0785H13.2547V35.9264H12.2547ZM18.3969 39.2081C15.9155 39.2081 13.8689 37.728 13.23 35.7712L12.2794 36.0815C13.0675 38.4954 15.5329 40.2081 18.3969 40.2081V39.2081ZM23.4585 36.0591C22.7214 37.8716 20.7537 39.2081 18.3969 39.2081V40.2081C21.1202 40.2081 23.4799 38.6611 24.3848 36.4358L23.4585 36.0591ZM24.4216 42.0222V36.2474H23.4216V42.0222H24.4216ZM24.4216 42.3378V42.0222H23.4216V42.3378H24.4216ZM23.932 41.8378H23.9216V42.8378H23.932V41.8378ZM29.799 46.7815C26.8879 46.7815 24.593 44.7554 24.4309 42.3048L23.4331 42.3708C23.6358 45.4355 26.4549 47.7815 29.799 47.7815V46.7815ZM35.167 42.3048C35.0049 44.7554 32.7101 46.7815 29.799 46.7815V47.7815C33.143 47.7815 35.9621 45.4355 36.1648 42.3708L35.167 42.3048ZM35.6763 41.8378H35.6659V42.8378H35.6763V41.8378ZM35.1763 42.0222V42.3378H36.1763V42.0222H35.1763ZM35.1763 30.2414V42.0222H36.1763V30.2414H35.1763ZM41.4361 33.9489C38.7939 33.9489 36.65 32.2736 36.1639 30.1308L35.1887 30.352C35.7917 33.0105 38.3915 34.9489 41.4361 34.9489V33.9489ZM45.5017 32.3034C44.521 33.3055 43.0687 33.9489 41.4361 33.9489V34.9489C43.3306 34.9489 45.0426 34.2022 46.2164 33.0029L45.5017 32.3034ZM46.9035 32.2963C46.5793 32.257 46.2578 32.2114 45.9392 32.1596L45.779 33.1467C46.1109 33.2006 46.4456 33.2481 46.783 33.289L46.9035 32.2963ZM47.3433 46.9659V32.7927H46.3433V46.9659H47.3433ZM47.3433 47.0711V46.9659H46.3433V47.0711H47.3433ZM46.8444 46.5711H46.8433V47.5711H46.8444V46.5711ZM52.7206 51.7252C49.7344 51.7252 47.3999 49.5958 47.3443 47.0602L46.3445 47.0821C46.4142 50.2586 49.2934 52.7252 52.7206 52.7252V51.7252ZM58.0969 47.0602C58.0413 49.5958 55.7068 51.7252 52.7206 51.7252V52.7252C56.1478 52.7252 59.027 50.2586 59.0967 47.0821L58.0969 47.0602ZM58.598 46.5711H58.5968V47.5711H58.598V46.5711ZM58.098 46.9659V47.0711H59.098V46.9659H58.098ZM58.098 44.1363V46.9659H59.098V44.1363H58.098ZM64.1227 47.097C61.7659 47.097 59.7982 45.7604 59.0611 43.9479L58.1348 44.3246C59.0397 46.55 61.3994 48.097 64.1227 48.097V47.097ZM69.4907 42.6203C69.3286 45.0709 67.0337 47.097 64.1227 47.097V48.097C67.4667 48.097 70.2858 45.7511 70.4885 42.6863L69.4907 42.6203ZM70 42.1533H69.9896V43.1533H70V42.1533ZM69.5 42.3378V42.6533H70.5V42.3378H69.5ZM69.5 16.9881V42.3378H70.5V16.9881H69.5Z"
			fill="black"
		/>
	</g>
	<g filter="url(#filter2_d_0_1)">
		<mask id="path-6-inside-1_0_1" fill="white">
			<path
				fill-rule="evenodd"
				clip-rule="evenodd"
				d="M58.0859 67.3719H58.1278V66.7407V61.4815C58.1278 58.5769 55.4964 56.2222 52.2504 56.2222C49.0045 56.2222 46.3731 58.5769 46.3731 61.4815V66.7407V67.3719H46.415C46.7634 69.9789 49.2431 72 52.2504 72C55.2577 72 57.7375 69.9789 58.0859 67.3719Z"
			/>
		</mask>
		<path
			fill-rule="evenodd"
			clip-rule="evenodd"
			d="M58.0859 67.3719H58.1278V66.7407V61.4815C58.1278 58.5769 55.4964 56.2222 52.2504 56.2222C49.0045 56.2222 46.3731 58.5769 46.3731 61.4815V66.7407V67.3719H46.415C46.7634 69.9789 49.2431 72 52.2504 72C55.2577 72 57.7375 69.9789 58.0859 67.3719Z"
			fill="#8D9EFF"
		/>
		<path
			d="M58.1278 67.3719V68.3719H59.1278V67.3719H58.1278ZM58.0859 67.3719V66.3719H57.2106L57.0947 67.2394L58.0859 67.3719ZM46.3731 67.3719H45.3731V68.3719H46.3731V67.3719ZM46.415 67.3719L47.4061 67.2394L47.2902 66.3719H46.415V67.3719ZM58.1278 66.3719H58.0859V68.3719H58.1278V66.3719ZM57.1278 66.7407V67.3719H59.1278V66.7407H57.1278ZM57.1278 61.4815V66.7407H59.1278V61.4815H57.1278ZM59.1278 61.4815C59.1278 57.923 55.9413 55.2222 52.2504 55.2222V57.2222C55.0515 57.2222 57.1278 59.2308 57.1278 61.4815H59.1278ZM52.2504 55.2222C48.5596 55.2222 45.3731 57.923 45.3731 61.4815H47.3731C47.3731 59.2308 49.4493 57.2222 52.2504 57.2222V55.2222ZM47.3731 66.7407V61.4815H45.3731V66.7407H47.3731ZM47.3731 67.3719V66.7407H45.3731V67.3719H47.3731ZM46.415 66.3719H46.3731V68.3719H46.415V66.3719ZM45.4238 67.5043C45.8487 70.6841 48.8228 73 52.2504 73V71C49.6635 71 47.678 69.2737 47.4061 67.2394L45.4238 67.5043ZM52.2504 73C55.6781 73 58.6521 70.6841 59.0771 67.5043L57.0947 67.2394C56.8228 69.2737 54.8373 71 52.2504 71V73Z"
			fill="black"
			mask="url(#path-6-inside-1_0_1)"
		/>
	</g>
	<defs>
		<filter
			id="filter0_d_0_1"
			x="24"
			y="50"
			width="12"
			height="12"
			filterUnits="userSpaceOnUse"
			color-interpolation-filters="sRGB"
		>
			<feFlood flood-opacity="0" result="BackgroundImageFix" />
			<feColorMatrix
				in="SourceAlpha"
				type="matrix"
				values="0 0 0 0 0 0 0 0 0 0 0 0 0 0 0 0 0 0 127 0"
				result="hardAlpha"
			/>
			<feOffset dx="1" dy="1" />
			<feComposite in2="hardAlpha" operator="out" />
			<feColorMatrix type="matrix" values="0 0 0 0 0 0 0 0 0 0 0 0 0 0 0 0 0 0 0.25 0" />
			<feBlend mode="normal" in2="BackgroundImageFix" result="effect1_dropShadow_0_1" />
			<feBlend mode="normal" in="SourceGraphic" in2="effect1_dropShadow_0_1" result="shape" />
		</filter>
		<filter
			id="filter1_d_0_1"
			x="0.5"
			y="0.5"
			width="71"
			height="53.2252"
			filterUnits="userSpaceOnUse"
			color-interpolation-filters="sRGB"
		>
			<feFlood flood-opacity="0" result="BackgroundImageFix" />
			<feColorMatrix
				in="SourceAlpha"
				type="matrix"
				values="0 0 0 0 0 0 0 0 0 0 0 0 0 0 0 0 0 0 127 0"
				result="hardAlpha"
			/>
			<feOffset dx="1" dy="1" />
			<feComposite in2="hardAlpha" operator="out" />
			<feColorMatrix type="matrix" values="0 0 0 0 0 0 0 0 0 0 0 0 0 0 0 0 0 0 0.25 0" />
			<feBlend mode="normal" in2="BackgroundImageFix" result="effect1_dropShadow_0_1" />
			<feBlend mode="normal" in="SourceGraphic" in2="effect1_dropShadow_0_1" result="shape" />
		</filter>
		<filter
			id="filter2_d_0_1"
			x="46.3731"
			y="56.2222"
			width="12.7547"
			height="16.7778"
			filterUnits="userSpaceOnUse"
			color-interpolation-filters="sRGB"
		>
			<feFlood flood-opacity="0" result="BackgroundImageFix" />
			<feColorMatrix
				in="SourceAlpha"
				type="matrix"
				values="0 0 0 0 0 0 0 0 0 0 0 0 0 0 0 0 0 0 127 0"
				result="hardAlpha"
			/>
			<feOffset dx="1" dy="1" />
			<feComposite in2="hardAlpha" operator="out" />
			<feColorMatrix type="matrix" values="0 0 0 0 0 0 0 0 0 0 0 0 0 0 0 0 0 0 0.25 0" />
			<feBlend mode="normal" in2="BackgroundImageFix" result="effect1_dropShadow_0_1" />
			<feBlend mode="normal" in="SourceGraphic" in2="effect1_dropShadow_0_1" result="shape" />
		</filter>
	</defs>
</svg>